<?xml version="1.0" standalone="no"?>
<!DOCTYPE svg PUBLIC "-//W3C//DTD SVG 1.1//EN" "http://www.w3.org/Graphics/SVG/1.1/DTD/svg11.dtd">
<svg xmlns="http://www.w3.org/2000/svg" id="Layer_1" data-name="Layer 1" viewBox="0 0 607.16 598.52" width="607.1599731445312" height="598.52001953125"><defs><style>.cls-1{fill:#020ea6;}</style></defs><path class="cls-1" d="M734.59,276.41a234,234,0,0,0-166.55-69H432A235.55,235.55,0,0,0,196.42,443V570.4A235.55,235.55,0,0,0,432,805.94H568A235.55,235.55,0,0,0,803.58,570.4V443A234,234,0,0,0,734.59,276.41ZM440.5,686.94H432A116.67,116.67,0,0,1,315.42,570.4V443A116.67,116.67,0,0,1,432,326.42h8.54ZM684.58,570.4A116.67,116.67,0,0,1,568,686.94H559.5V326.42H568A116.67,116.67,0,0,1,684.58,443Z" transform="translate(-196.42 -207.42)"/></svg>